HIERARCHY
ROOT Hips
{
	OFFSET -14.64140 90.27770 -84.91600
	CHANNELS 6 Xposition Yposition Zposition Zrotation Xrotation Yrotation
	JOINT Spine
	{
		OFFSET 0.00000 13.20850 -1.60436
		CHANNELS 3 Zrotation Xrotation Yrotation
		JOINT Spine1
		{
			OFFSET 0.00000 8.61716 0.00000
			CHANNELS 3 Zrotation Xrotation Yrotation
			JOINT Spine2
			{
				OFFSET 0.00000 8.61717 0.00000
				CHANNELS 3 Zrotation Xrotation Yrotation
				JOINT Spine3
				{
					OFFSET 0.00000 8.61717 0.00000
					CHANNELS 3 Zrotation Xrotation Yrotation
					JOINT Neck
					{
						OFFSET 0.00000 11.07920 1.10792
						CHANNELS 3 Zrotation Xrotation Yrotation
						JOINT Neck1
						{
							OFFSET 0.00000 7.08032 0.00000
							CHANNELS 3 Zrotation Xrotation Yrotation
							JOINT Head
							{
								OFFSET 0.00000 7.08031 0.00000
								CHANNELS 3 Zrotation Xrotation Yrotation
								End site
								{
									OFFSET 0.00000 0.00000 0.00000
								}
							}
						}
					}
					JOINT RightShoulder
					{
						OFFSET -0.01000 7.91373 5.19711
						CHANNELS 3 Zrotation Xrotation Yrotation
						JOINT RightArm
						{
							OFFSET -18.41580 0.00000 0.00000
							CHANNELS 3 Zrotation Xrotation Yrotation
							JOINT RightForeArm
							{
								OFFSET -29.11090 0.00000 0.00000
								CHANNELS 3 Zrotation Xrotation Yrotation
								JOINT RightHand
								{
									OFFSET -24.65040 0.00000 0.00000
									CHANNELS 3 Zrotation Xrotation Yrotation
									JOINT RightHandThumb1
									{
										OFFSET -5.35114 -0.85590 3.97906
										CHANNELS 3 Zrotation Xrotation Yrotation
										JOINT RightHandThumb2
										{
											OFFSET -4.52789 0.00000 0.00000
											CHANNELS 3 Zrotation Xrotation Yrotation
											JOINT RightHandThumb3
											{
												OFFSET -2.46976 0.00000 0.00000
												CHANNELS 3 Zrotation Xrotation Yrotation
												End site
												{
													OFFSET 0.00000 0.00000 0.00000
												}
											}
										}
									}
									JOINT RightHandIndex1
									{
										OFFSET -14.26970 0.00000 2.88139
										CHANNELS 3 Zrotation Xrotation Yrotation
										JOINT RightHandIndex2
										{
											OFFSET -5.48836 0.00000 0.00000
											CHANNELS 3 Zrotation Xrotation Yrotation
											JOINT RightHandIndex3
											{
												OFFSET -3.01859 0.00000 0.00000
												CHANNELS 3 Zrotation Xrotation Yrotation
												End site
												{
													OFFSET 0.00000 0.00000 0.00000
												}
											}
										}
									}
									JOINT RightHandMiddle1
									{
										OFFSET -14.26970 0.00000 -0.09147
										CHANNELS 3 Zrotation Xrotation Yrotation
										JOINT RightHandMiddle2
										{
											OFFSET -6.17441 0.00000 0.00000
											CHANNELS 3 Zrotation Xrotation Yrotation
											JOINT RightHandMiddle3
											{
												OFFSET -3.56743 0.00000 0.00000
												CHANNELS 3 Zrotation Xrotation Yrotation
												End site
												{
													OFFSET 0.00000 0.00000 0.00000
												}
											}
										}
									}
									JOINT RightHandRing1
									{
										OFFSET -12.69180 0.00000 -3.06433
										CHANNELS 3 Zrotation Xrotation Yrotation
										JOINT RightHandRing2
										{
											OFFSET -5.62556 0.00000 0.00000
											CHANNELS 3 Zrotation Xrotation Yrotation
											JOINT RightHandRing3
											{
												OFFSET -3.56744 0.00000 0.00000
												CHANNELS 3 Zrotation Xrotation Yrotation
												End site
												{
													OFFSET 0.00000 0.00000 0.00000
												}
											}
										}
									}
									JOINT RightHandPinky1
									{
										OFFSET -11.11390 0.00000 -6.03719
										CHANNELS 3 Zrotation Xrotation Yrotation
										JOINT RightHandPinky2
										{
											OFFSET -4.52789 0.00000 0.00000
											CHANNELS 3 Zrotation Xrotation Yrotation
											JOINT RightHandPinky3
											{
												OFFSET -2.46976 0.00000 0.00000
												CHANNELS 3 Zrotation Xrotation Yrotation
												End site
												{
													OFFSET 0.00000 0.00000 0.00000
												}
											}
										}
									}
								}
							}
						}
					}
					JOINT LeftShoulder
					{
						OFFSET 0.01000 7.91373 5.19711
						CHANNELS 3 Zrotation Xrotation Yrotation
						JOINT LeftArm
						{
							OFFSET 18.41580 0.00000 0.00000
							CHANNELS 3 Zrotation Xrotation Yrotation
							JOINT LeftForeArm
							{
								OFFSET 29.11090 0.00000 0.00000
								CHANNELS 3 Zrotation Xrotation Yrotation
								JOINT LeftHand
								{
									OFFSET 24.65040 0.00000 0.00000
									CHANNELS 3 Zrotation Xrotation Yrotation
									JOINT LeftHandThumb1
									{
										OFFSET 5.35114 -0.85590 3.97906
										CHANNELS 3 Zrotation Xrotation Yrotation
										JOINT LeftHandThumb2
										{
											OFFSET 4.52789 0.00000 0.00000
											CHANNELS 3 Zrotation Xrotation Yrotation
											JOINT LeftHandThumb3
											{
												OFFSET 2.46977 0.00000 0.00000
												CHANNELS 3 Zrotation Xrotation Yrotation
												End site
												{
													OFFSET 0.00000 0.00000 0.00000
												}
											}
										}
									}
									JOINT LeftHandIndex1
									{
										OFFSET 14.26970 0.00000 2.88139
										CHANNELS 3 Zrotation Xrotation Yrotation
										JOINT LeftHandIndex2
										{
											OFFSET 5.48836 0.00000 0.00000
											CHANNELS 3 Zrotation Xrotation Yrotation
											JOINT LeftHandIndex3
											{
												OFFSET 3.01859 0.00000 0.00000
												CHANNELS 3 Zrotation Xrotation Yrotation
												End site
												{
													OFFSET 0.00000 0.00000 0.00000
												}
											}
										}
									}
									JOINT LeftHandMiddle1
									{
										OFFSET 14.26970 0.00000 -0.09147
										CHANNELS 3 Zrotation Xrotation Yrotation
										JOINT LeftHandMiddle2
										{
											OFFSET 6.17440 0.00000 0.00000
											CHANNELS 3 Zrotation Xrotation Yrotation
											JOINT LeftHandMiddle3
											{
												OFFSET 3.56744 0.00000 0.00000
												CHANNELS 3 Zrotation Xrotation Yrotation
												End site
												{
													OFFSET 0.00000 0.00000 0.00000
												}
											}
										}
									}
									JOINT LeftHandRing1
									{
										OFFSET 12.69180 0.00000 -3.06433
										CHANNELS 3 Zrotation Xrotation Yrotation
										JOINT LeftHandRing2
										{
											OFFSET 5.62556 0.00000 0.00000
											CHANNELS 3 Zrotation Xrotation Yrotation
											JOINT LeftHandRing3
											{
												OFFSET 3.56744 0.00000 0.00000
												CHANNELS 3 Zrotation Xrotation Yrotation
												End site
												{
													OFFSET 0.00000 0.00000 0.00000
												}
											}
										}
									}
									JOINT LeftHandPinky1
									{
										OFFSET 11.11390 0.00000 -6.03719
										CHANNELS 3 Zrotation Xrotation Yrotation
										JOINT LeftHandPinky2
										{
											OFFSET 4.52789 0.00000 0.00000
											CHANNELS 3 Zrotation Xrotation Yrotation
											JOINT LeftHandPinky3
											{
												OFFSET 2.46976 0.00000 0.00000
												CHANNELS 3 Zrotation Xrotation Yrotation
												End site
												{
													OFFSET 0.00000 0.00000 0.00000
												}
											}
										}
									}
								}
							}
						}
					}
					JOINT pCube4
					{
						OFFSET 0.00000 10.91090 1.10792
						CHANNELS 3 Zrotation Xrotation Yrotation
						End site
						{
							OFFSET 0.00000 0.00000 0.00000
						}
					}
				}
			}
		}
	}
	JOINT RightUpLeg
	{
		OFFSET -9.98441 0.00000 0.00000
		CHANNELS 3 Zrotation Xrotation Yrotation
		JOINT RightLeg
		{
			OFFSET 0.00000 -42.11790 0.00000
			CHANNELS 3 Zrotation Xrotation Yrotation
			JOINT RightFoot
			{
				OFFSET 0.00000 -45.00020 -0.00001
				CHANNELS 3 Zrotation Xrotation Yrotation
				JOINT RightForeFoot
				{
					OFFSET 0.00000 -3.74820 0.00000
					CHANNELS 3 Zrotation Xrotation Yrotation
					JOINT RightToeBase
					{
						OFFSET 0.00000 0.06325 14.43120
						CHANNELS 3 Zrotation Xrotation Yrotation
						End site
						{
							OFFSET 0.00000 0.00000 0.00000
						}
					}
				}
			}
		}
	}
	JOINT LeftUpLeg
	{
		OFFSET 9.98441 0.00000 0.00000
		CHANNELS 3 Zrotation Xrotation Yrotation
		JOINT LeftLeg
		{
			OFFSET 0.00000 -42.11800 0.00000
			CHANNELS 3 Zrotation Xrotation Yrotation
			JOINT LeftFoot
			{
				OFFSET 0.00000 -45.00070 0.00000
				CHANNELS 3 Zrotation Xrotation Yrotation
				JOINT LeftForeFoot
				{
					OFFSET 0.00000 -3.74824 0.00000
					CHANNELS 3 Zrotation Xrotation Yrotation
					JOINT LeftToeBase
					{
						OFFSET 0.00000 0.06325 14.43110
						CHANNELS 3 Zrotation Xrotation Yrotation
						End site
						{
							OFFSET 0.00000 0.00000 0.00000
						}
					}
				}
			}
		}
	}
}
MOTION
Frames: 4
Frame Time: 0.050000
-0.006530656338003972 -0.04399543743420199 0.00017407402680117657 0.019478237869337563 -0.028283830144420236 -0.023753270985354583 1.3654022208476924 4.090679489848397 -1.494332479707369 -0.5036044958013999 4.0988403611465545 0.34370034497810953 -0.520083135993766 -1.4270211875279937 0.6601643294192431 -1.340745606019207 -0.672325852950219 -0.29540325051086996 -1.1717879968630294 12.85616863580939 1.3136135484089795 0.3240592150094116 -2.060396961753729 3.250749411079802 0.22332787426779116 -19.119143078686907 0.23260145001449417 -4.868892954621541 2.0316453735131312 -16.359934463073852 78.75884234544318 9.461553344971522 -1.7100871568692988 0.5461186280349729 3.186821808306336 52.8028536622034 25.45730634182155 -0.34119923979281497 -2.693897471688595 4.538733901611027 -0.15950444727387744 -1.6388734250013433 -0.018291323713776498 0.028804420701087526 -56.26216801958454 0.04052206077352649 0.024736263686880568 -56.2387355597191 -38.7841964252904 -0.0404558045207042 -0.0075954964160724146 0.017135656837590312 -0.01472739700139957 -0.02358938918621909 0.017644256341663476 0.0191190490534182 0.008007872027570532 -36.68966617610959 -0.02724013450360951 -0.032945587197450894 -0.008744962396047096 0.03688217630184634 -0.0025561531742186246 -0.02446158948582705 0.039496737947743596 0.04388370815430201 -19.755916766354403 -0.013503397723955866 -0.03952130168634317 -0.009657155631958354 0.01805180107909861 -0.008200270830537818 0.025513514279857936 -0.01216747538269701 -0.013302428168648593 24.055678671770323 -0.035126948966753745 -0.048496837802451086 28.904951013599113 0.018982951755233825 0.02941278993983289 28.903452982950515 -0.0155191688465831 0.013173137461577352 8.207764034797234 2.0170784142733895 14.954620795129097 -78.45945309696334 16.299216687115784 -12.034822668464631 -1.2749456742554004 12.075285885131251 -48.21154258596952 -27.31779684726825 8.314567032843732 -3.886893014527561 -0.5240613011303946 0.041500348740803224 -8.142706415188615 0.02626792053127341 -0.02917673935061376 44.576600320611156 -0.018542061092641483 0.03854954724078311 44.56001281493438 12.418861301059701 0.025857989680761695 0.03720159315709371 -0.009607256544365913 -0.03368372809536289 -0.02227529650371474 0.007169882189139457 0.04235809571946746 0.02672983992382053 11.077989675122351 0.003627592041795777 0.023097687854497954 -0.013643094072657659 -0.034750525850449555 -0.03699979033576065 0.022911593707887798 0.004444283022396761 -0.002943188637152378 4.763401590977052 -0.021561587891154137 -0.0147959647733732 0.02575555758265079 0.009220028210977102 -0.03300898202588653 0.01206805397299207 -0.01891771159789458 0.02107045946044193 -5.576094495862834 0.008292951210758634 0.046528952145748786 -6.719613164699554 -0.03739657895771742 0.028213438478592836 -6.692544695891057 -0.009353624999940085 -0.00849580429666718 -0.00769744764522868 -0.04181211182298313 -0.010438932936506268 8.067009580633131 3.496956309615457 -19.21545472356387 -0.007462970535256166 10.395880698388154 0.048418432765643726 -5.629269089379159 -15.681931134267497 3.1709517959318703 -0.005825511317320566 -0.006898714001552098 -0.04558411123454509 -0.03386493003898085 4.661398635731866 0.038407608964132374 12.456221704996755 -8.22806469245574 6.83527298190878 -0.03757007831952203 46.4058754966003 -0.002189224141765975 -4.278724955983105 -14.735941050568227 -3.8212190263169226 -0.024364202838868098 0.013629343915664364 -0.044525328790662184 -0.03097797163763763 -10.72311983107545 -0.019271283412025244 
0.013788828238730226 -0.03858063345905402 -0.020925675277248295 0.047442981399562024 -0.009542387935567184 -0.014961277639801207 0.95986816558659 4.063103450654234 -1.4856837614863418 -0.5108387609115383 4.132972078632714 0.2854447731971067 -0.574377563233819 -1.4415959232451434 0.7813961013810704 -1.407527405098182 -0.7297480449170182 -0.2626043368269153 -1.1722036062458958 12.918700884649182 1.223814776801937 0.3794122183424016 -2.221654335984694 3.0321290439665702 0.2490312180359951 -19.267340178908796 0.18969763988993732 -4.600701312364524 1.948427867169176 -16.31574789260301 78.49962596690597 9.588058318913717 -1.5974392753455406 -0.5642078121897838 3.1717005470881747 54.142372632220976 26.374051455654005 -0.27836334444319866 -2.8398132730963312 4.574119658794796 -0.14321938847934357 -1.5978268975884113 0.03730038037786261 0.029512025570691925 -56.206330815346135 0.02160187235126698 -0.011651848180353681 -56.27064585482352 -38.776720466841276 0.012179651003057046 -0.030160925014003127 0.00731878319390004 -0.0006154031846380751 -0.00011967124677322036 -0.024393215461167364 0.006493725468536138 -0.02494959816601045 -36.69128260981828 0.036804325096860276 0.002254199644980719 0.04544471173809879 -0.04528899582851996 -0.02691139408215892 0.006695666556658679 -0.006690217554568232 0.02588026311345315 -19.75046190194365 0.04637358459395493 -0.018553279970471605 0.012387399945399759 -0.015324947226810397 -0.013845744780873508 -0.01372695380983412 0.04687611049200735 0.03201687738290732 24.030448778600668 0.02195302223036208 -0.010978916507911683 28.854276014055806 0.018995577412471033 0.03845759775120562 28.903552861033198 0.034749745666441866 -0.024620804100043435 7.834794749834907 1.9249349859204068 15.056266758096271 -78.74776051862814 15.896898173246758 -11.283411926498792 -0.3624518800527205 12.153733117065297 -47.128701889768465 -28.198749132307256 9.295608011641214 -4.5748060944925 -0.5018838624419311 0.025368091351152637 -8.094033529916373 0.006200587560489409 -0.02677538353503176 44.56231520027143 0.03434278065062175 -0.007218997134627276 44.54716318064071 12.46679204808786 -0.01680627151242642 0.030431199359487716 -0.012322759560567623 -0.02397677121413467 0.0010346136020522698 -0.04140281850738547 0.01638862348109199 0.04831610909543569 11.072006990212659 -0.023810556249831517 -0.02682634159157743 -0.03799808023272554 0.02461466813686208 0.012356840725819156 0.0321184165385048 0.028351059911522508 0.010187962490687987 4.815029820297917 -0.02514957951596623 -0.02936596744209635 -0.014279649754120816 -0.049849494270330544 -0.033731318762946945 0.03494698619134281 0.018492107775751488 -0.0476232362833533 -5.626953860826162 -0.00027470300118649193 0.016018676569849684 -6.752402332004224 -0.030421758941838985 -0.011835738503714645 -6.720713166586823 0.0006440302385006273 -0.03866200763981006 -0.006604434186365838 -0.03544679979610651 -0.023514862163051587 8.092615353097909 3.4539355114167885 -19.247487106577253 0.01237723613850604 10.408305656315695 -0.026201290424655643 -5.66848565607434 -15.65691396896533 3.222280721027945 -0.02474244722901621 0.04327170701669552 0.018151455387371996 0.018455945831730422 4.6525961973730166 0.03533049769118803 12.433315789135285 -8.237448660842281 6.838851155495926 -0.004063881334790992 46.3410579614401 -0.008890816613989804 -4.326550775502572 -14.789853434808759 -3.8365950966184803 0.01400857081949647 -0.012973230961843421 -0.020859409582336525 0.0486702283918379 -10.777035009278219 0.047183358832184406 
-0.003834540653869799 0.006829981482294956 -0.025551204241282495 0.03307601073889993 0.037748117038493754 0.0013847570833190326 0.5900797989546985 4.029595487640668 -1.4627478115709713 -0.5355098719958878 4.126974763852243 0.32907228154628243 -0.5759762186551869 -1.4793173907911472 0.7731901316043646 -1.5191211294527247 -0.7221185877807266 -0.2502039805089907 -1.1134708589529974 12.760382884928529 1.2617807246210706 0.37942232030074224 -2.356904076241618 2.9145133765465054 0.306585975987993 -19.49015254267923 0.11698925112604527 -4.373062340882622 1.9638007258658718 -16.2365723032425 78.28154718860128 9.852394319142062 -1.7256595420425076 -1.564748153221924 2.9511916896957593 55.66970649247872 27.12433359073482 -0.3453544637716149 -3.049403553419383 4.531331092669782 -0.08888627630480622 -1.6197475459310198 0.01911914774912454 0.045131172216220455 -56.2424727594673 0.03551180602665536 0.041361215801115236 -56.194642358184964 -38.796612165297034 -0.024920541605903374 -0.014286045443042635 0.0185973510383879 0.03940752578554314 0.005689208334814385 -0.021037812148781827 -0.0007132304568380195 0.012338556812154055 -36.7122217918252 -0.03398914849961684 -0.04563518198535929 -0.04593499037729701 -0.005772388798535385 0.0018150059741865493 -0.012799899133627815 0.04838315537541585 0.0039709063976600565 -19.786300164180343 -0.010535489587424073 0.04462076120732777 -0.04104433979898558 0.016598123971738796 0.03755500120949263 0.0029247686772888395 0.04605474427984122 -0.04626812585583057 24.056013887763488 -0.04254975930874297 0.016623253835846973 28.81547791742086 0.02836216224753719 -0.008526920307605644 28.836816254152897 0.008121007983441815 -0.01664820835755334 7.666204612041411 1.9486199937543875 15.020035246373176 -78.900479768438 15.958034795798106 -10.689442702712272 -0.07298066260058741 11.308922007817715 -46.495200804734374 -28.868336211169222 9.64385531381895 -4.895260721535864 -0.4971031283682662 0.0177923582624976 -8.11619036512702 0.005043987905540462 -0.029117911309383814 44.57757940739284 -0.03237223980930906 0.00559239923832288 44.58920697438091 12.439829196243501 -0.041732286987207816 -0.03212411794250042 -0.04872222221591315 -0.02374900023037109 -0.037325634307139 0.04487170829463347 0.014172690307227816 -0.023145702080408764 11.138704397974948 0.005720646099763005 -0.0033174608207936613 0.029800781668803074 0.002620407832517437 -0.009616366381359046 -0.01228430764097958 0.03201154651550018 -0.035635615186533486 4.750995499259153 -0.015061396252240991 -0.022376643069374445 0.016199284102097963 0.04551169753291401 -0.039419792122259024 -0.012073356160610102 -0.011950279670388418 -0.015878801853907085 -5.591777701902725 0.019713692958846094 0.021429185817127282 -6.680588031327722 -0.02630197654268642 0.0018418442623187297 -6.709291531532772 0.011180615900184617 -0.020516012579440024 0.027597356573102916 0.0147900247839597 0.042893221127809786 8.036200746121848 3.460466276121517 -19.177880996213194 -0.02746103037031126 10.36670706438924 0.0426533310674267 -5.610438675960525 -15.674543748226705 3.142395304242259 -0.008024539214895205 0.003377825947877646 0.037187832232647294 -0.007930085595174597 4.692270100823389 -0.03372805856974352 12.419477747851719 -8.228731002882224 6.894138017261815 0.011909993612211886 46.34145884830948 -0.03191806666468012 -4.37185969519246 -14.737260312293001 -3.8627617644776637 0.01732368684035977 -0.04119289420803722 0.0011143030805530658 0.0033322145317459108 -10.749637014080992 0.028254405750783553 
-0.004533033571499833 0.03171008349239005 -0.047106016155123505 0.027253942268628303 0.042912482491276625 0.03799041180965341 0.03659974522848164 4.108056340276736 -1.3761495832264987 -0.46500268628588803 4.128322851405177 0.3645272649427267 -0.5905900392806963 -1.463012088017746 0.8279426694614987 -1.5351475685353084 -0.808867559942845 -0.266665489777932 -1.1646623100926345 12.722771396183763 1.300290767683494 0.34836929956599055 -2.4647473844463943 2.8600295340826825 0.33977220517128026 -19.619808636167463 0.1470065970238358 -3.996354906273839 1.8059363757546916 -16.16305012140162 78.04698411970229 9.673946431516613 -1.930573189158558 -2.2406296599728868 3.6583474188867364 55.90572404219567 27.86331758804233 -0.2962985059222418 -2.9117126849795145 4.556744290637715 -0.13992529019425437 -1.6154986595113117 0.01614021881088536 -0.032431193128168605 -56.210857946789666 -0.02223147749748467 -0.032608595535320785 -56.28104052283502 -38.74693434411316 -0.008445279112677445 0.03537440851260418 -0.028655203294484982 0.030202474704843094 0.003740788605358534 0.027463190976410427 0.014188920610116165 0.014465565217259996 -36.6856380448414 0.031922502460982695 0.007260814020470664 -0.03823496225521129 0.04379897025121103 -0.03495832911136903 -0.020501481908300326 -0.01310170750554883 -0.003962176091860365 -19.773615988436184 0.041546383447757775 -0.0242236729765224 0.043348193717457253 0.03338573547261606 -0.013622996686152538 0.017950257485127342 0.029488505337901285 0.01061304670940184 24.067518575805668 -0.03564402414507699 -0.0014217902080251455 28.86789746564297 -0.03598714023458045 0.01955169987892626 28.852733276660185 -0.03968404203046099 -0.0008439016771707732 7.140426786606217 1.8532807281827255 14.993545902745362 -79.14088642467853 15.791142497996994 -9.817209954952467 0.8774891500493114 11.39997017511178 -45.14859412156251 -29.53566498994219 10.890606642374712 -5.884930842737942 -0.5012133582080375 0.0303327757474083 -8.1481796531272 -0.013366852527352525 0.035016916054859015 44.55993889327277 -0.01680771030151312 0.04296972043588659 44.59433663924279 12.45589115565217 0.04546875306323077 -0.008433074714456036 -0.01983423400081739 -0.015103554473909313 -0.031920290309788914 -0.00010052182406677362 -0.005755631591860844 0.00993575195321513 11.129276972073727 0.02766347273501925 0.019963364034317695 0.0362046370052023 -0.028361633484132957 -0.003275839336563954 -0.030483715811504348 0.010429037753397033 0.024878926737465633 4.7575362299928985 0.007415183989672716 -0.04390663267030672 0.03188631997794673 -0.048430261411845324 -0.00909711490916468 -0.03528452025478659 0.010220808371504507 -0.0335697433458582 -5.649096072733463 -0.03458056298074651 -0.007671362993902245 -6.685116935724385 0.02442845850654213 0.01231020319588695 -6.6948482427179785 0.04176935541787038 0.03579768142653036 -0.017068517558387418 -0.029219208615446524 0.0365774653701552 8.031730599480374 3.458778095396456 -19.216784851716362 0.02908172767550564 10.389998219010046 -0.0345008574330936 -5.63185731214533 -15.6734545549671 3.2195442408858677 0.02745647282720704 0.03317639648724596 -0.0009600365227322117 -0.013420166992224815 4.740909949540405 0.01738562916105315 12.437884108396018 -8.198144099030069 6.920108153486135 -0.020954808159196602 46.42735173570883 -0.04804141255034946 -4.283415213603152 -14.764385765656685 -3.8549923788006564 0.015104689652368391 0.044422981408231345 -0.027694230542774464 0.035067537482040445 -10.735449345004872 0.03371705661943851 
